Coordinates
version=1
nRows=16
nColumns=40
inDegrees=yes

Units are S.I. units (second, meters, Newtons, ...)
Angles are in degrees.

endheader
time	pelvis_tilt	pelvis_list	pelvis_rotation	pelvis_tx	pelvis_ty	pelvis_tz	hip_flexion_r	hip_adduction_r	hip_rotation_r	knee_angle_r	knee_angle_r_beta	ankle_angle_r	subtalar_angle_r	mtp_angle_r	hip_flexion_l	hip_adduction_l	hip_rotation_l	knee_angle_l	knee_angle_l_beta	ankle_angle_l	subtalar_angle_l	mtp_angle_l	lumbar_extension	lumbar_bending	lumbar_rotation	arm_flex_r	arm_add_r	arm_rot_r	elbow_flex_r	pro_sup_r	wrist_flex_r	wrist_dev_r	arm_flex_l	arm_add_l	arm_rot_l	elbow_flex_l	pro_sup_l	wrist_flex_l	wrist_dev_l
     29.09750000	     -4.07384727	     -5.35143357	      1.50939215	      0.93246885	      0.91168796	      0.53000545	     17.49304093	      6.71158364	     -8.79171472	     29.30385378	     29.30385378	     16.77670572	    -12.46945376	      0.75105753	     29.35902424	    -12.47405311	      2.75424629	     63.41638678	     63.41638678	     19.58301593	    -19.60453297	     22.96764221	    -12.23730235	      7.02678305	      0.84686687	     17.91310509	    -13.76399513	    -18.60328658	     26.62853930	     47.01785998	      0.00000000	      0.00000000	     18.81678117	    -12.13616354	     -4.78096331	     46.67629011	     46.88901599	      0.00000000	      0.00000000
     29.11671429	     -3.61164202	     -5.23614820	      2.24418889	      0.93160288	      0.90961740	      0.53026911	     17.28433623	      6.68473382	     -8.61534796	     30.46394981	     30.46394981	     17.58762654	    -13.87509007	      0.94715762	     30.56801646	    -12.27748668	      2.96401727	     62.38179755	     62.38179755	     19.87359073	    -19.62352326	     23.36374333	    -12.46225114	      6.65317475	      0.58802839	     20.84977185	    -13.34462552	    -18.21931726	     28.23476311	     46.93501383	      0.00000000	      0.00000000	     16.55118249	    -11.15937895	     -3.90832330	     43.25191265	     46.75062537	      0.00000000	      0.00000000
     29.13592857	     -3.17480164	     -5.06191912	      2.97910570	      0.93073477	      0.90769962	      0.53022492	     17.05086740	      6.54919016	     -8.56649147	     31.55684421	     31.55684421	     18.40924502	    -14.98804703	      1.12293521	     31.61754601	    -11.95652220	      3.07819175	     60.82439847	     60.82439847	     20.01304152	    -19.62602226	     23.54934544	    -12.66964496	      6.24573165	      0.45098140	     23.69059265	    -12.98311007	    -17.76785467	     30.07830096	     46.83842572	      0.00000000	      0.00000000	     14.26597371	    -10.20955371	     -3.13204474	     40.17891685	     46.62107785	      0.00000000	      0.00000000
     29.15514286	     -2.81142632	     -4.88236371	      3.71092386	      0.92986923	      0.90616825	      0.52995019	     16.75607838	      6.38206576	     -8.64234524	     32.41155943	     32.41155943	     19.16807677	    -15.82760269	      1.35849302	     32.53896874	    -11.52378976	      3.18784441	     58.77929522	     58.77929522	     19.97004100	    -19.61007228	     23.58168918	    -12.79861403	      5.81505935	      0.29370790	     26.52480553	    -12.63871289	    -17.23033682	     32.22146266	     46.72584656	      0.00000000	      0.00000000	     11.88435648	     -9.31013313	     -2.40845247	     37.26510730	     46.49316881	      0.00000000	      0.00000000
     29.17435714	     -2.60444385	     -4.76543775	      4.48452076	      0.92893871	      0.90508238	      0.52931163	     16.47591154	      6.25055990	     -8.82407263	     33.00044914	     33.00044914	     20.36622243	    -16.13984916	      3.32922280	     33.41465591	    -10.97678696	      3.44400243	     56.27096686	     56.27096686	     19.46920203	    -19.59474309	     22.73844921	    -12.77847971	      5.47473467	      1.18791064	     27.53853792	    -13.59742413	    -13.93005245	     37.32626383	     46.28303513	      0.00000000	      0.00000000	     11.08442408	     -8.03340662	     -0.36312682	     31.39662449	     46.20040406	      0.00000000	      0.00000000
     29.19357143	     -2.45890320	     -4.47981480	      5.22146127	      0.92801276	      0.90471306	      0.52836218	     16.03960563	      5.88615148	     -9.12033065	     33.19231921	     33.19231921	     20.80221705	    -16.48602887	      3.33066071	     34.05288353	    -10.11918526	      3.69636563	     53.37112700	     53.37112700	     19.03989345	    -19.54998407	     22.71834863	    -12.78533566	      4.97416965	      0.89829107	     30.43256085	    -13.26596081	    -13.56514077	     39.73231191	     46.18244030	      0.00000000	      0.00000000	      8.19777754	     -7.45504484	      0.02894928	     29.84007003	     46.09523945	      0.00000000	      0.00000000
     29.21278571	     -2.41672957	     -4.25557420	      5.96193594	      0.92718687	      0.90498314	      0.52716938	     15.49381063	      5.55851132	     -9.53988091	     32.98901507	     32.98901507	     21.10055179	    -16.57098534	      3.42935077	     34.53076997	     -9.18097821	      4.15068532	     50.14442787	     50.14442787	     18.25307948	    -19.46934253	     22.14210379	    -12.63504728	      4.48769922	      0.58189113	     33.14065245	    -12.93725537	    -12.93380760	     42.68701015	     46.04689068	      0.00000000	      0.00000000	      5.39477165	     -6.99431419	      0.50452100	     28.17966330	     45.97461958	      0.00000000	      0.00000000
     29.23200000	     -2.45871582	     -4.01024053	      6.65681461	      0.92646050	      0.90598666	      0.52570366	     14.83083693	      5.19606065	    -10.00515130	     32.42306720	     32.42306720	     21.23579342	    -16.45182396	      3.52648091	     34.76720493	     -8.13901540	      4.70643897	     46.60133533	     46.60133533	     17.11116090	    -19.31905686	     21.01556946	    -12.44431203	      4.00968381	      0.43398265	     35.59359124	    -12.86047341	    -12.02156673	     46.20178795	     45.87892296	      0.00000000	      0.00000000	      2.66217894	     -6.59079326	      1.06259738	     26.66408424	     45.83552091	      0.00000000	      0.00000000
     29.25121429	     -2.68069578	     -3.84323945	      7.30058995	      0.92575688	      0.90737626	      0.52413856	     14.19652080	      4.89796109	    -10.56804619	     31.52355143	     31.52355143	     21.08264122	    -16.26294205	      3.26220959	     34.83136859	     -7.21966966	      5.21821302	     42.61232979	     42.61232979	     14.59670359	    -19.07622425	     16.65094687	    -12.16985805	      3.61077808	      1.33083647	     36.41669136	    -14.49259903	     -9.19389294	     52.90035413	     45.50563794	      0.00000000	      0.00000000	      0.35119417	     -6.28048051	      2.74905364	     25.82334294	     45.49135594	      0.00000000	      0.00000000
     29.27042857	     -2.86475485	     -3.62607925	      7.90754950	      0.92545177	      0.90938771	      0.52223103	     13.26056217	      4.58036281	    -11.05863522	     30.20903814	     30.20903814	     20.77156420	    -15.93305371	      2.75600799	     34.59145906	     -6.22047981	      5.90205033	     38.63913355	     38.63913355	     12.59460461	    -18.59481403	     13.63045407	    -11.83956803	      3.15333123	      1.72383807	     38.26013756	    -15.30346457	     -8.21621129	     57.29946580	     45.33159098	      0.00000000	      0.00000000	     -2.27458889	     -6.35441637	      4.94935933	     25.29603111	     45.05213140	      0.00000000	      0.00000000
     29.28964286	     -3.06440044	     -3.41115920	      8.46640830	      0.92530090	      0.91179994	      0.52013731	     12.22630238	      4.27498231	    -11.60126773	     28.70770390	     28.70770390	     20.53420247	    -15.36489923	      2.87125227	     34.23152099	     -5.28002360	      6.60442098	     34.91626265	     34.91626265	     11.78167999	    -17.39383280	     13.42138024	    -11.48549997	      2.71247934	      1.67918195	     41.00550962	    -15.24541238	     -8.11704271	     59.84326855	     45.25570624	      0.00000000	      0.00000000	     -4.87240916	     -6.27640353	      5.41787659	     24.50832644	     44.92407647	      0.00000000	      0.00000000
     29.30885714	     -3.33840287	     -3.30246285	      8.97735495	      0.92550390	      0.91396175	      0.51797098	     11.21899729	      4.05599368	    -12.27284384	     27.11882902	     27.11882902	     20.01598285	    -14.67486152	      1.97804552	     33.74222460	     -4.70562471	      6.79081238	     31.15926995	     31.15926995	      9.94076968	    -15.64730374	      9.91271387	    -11.05558830	      2.37831333	      2.15840240	     42.62264808	    -16.27223713	     -7.11152396	     65.02149363	     45.06952831	      0.00000000	      0.00000000	     -7.79298187	     -6.65757748	      7.15849499	     25.60240143	     44.55301257	      0.00000000	      0.00000000
     29.32807143	     -3.55118431	     -3.29822178	      9.45940364	      0.92600717	      0.91614785	      0.51569163	     10.04526853	      4.02027373	    -12.92900982	     25.33667813	     25.33667813	     19.69079267	    -13.89110790	      1.92894623	     33.22221959	     -4.31779055	      6.86185556	     27.99467945	     27.99467945	      9.49669525	    -13.19394017	      9.36071019	    -10.57416320	      2.17612069	      2.25115489	     45.18668801	    -16.36013769	     -6.90897519	     67.74360003	     44.99410179	      0.00000000	      0.00000000	    -10.26550585	     -6.80212528	      8.06825320	     25.39081247	     44.36090430	      0.00000000	      0.00000000
     29.34728571	     -3.73572564	     -3.16695352	      9.86437793	      0.92675608	      0.91812691	      0.51311122	      8.88613536	      3.86519437	    -13.37783023	     23.72523569	     23.72523569	     19.44701416	    -13.18068692	      2.06095101	     32.52549537	     -3.86254308	      6.69489943	     25.14121814	     25.14121814	      9.16515615	    -10.98963471	      9.39095675	    -10.10665111	      1.81837693	      2.48036851	     47.63368411	    -16.72907811	     -6.81594883	     69.90218291	     44.93506402	      0.00000000	      0.00000000	    -12.59487327	     -7.01007740	      8.41528224	     25.15700784	     44.26149744	      0.00000000	      0.00000000
     29.36650000	     -3.91338420	     -3.22435419	     10.27593280	      0.92771655	      0.91933506	      0.51031090	      7.79976638	      3.84782127	    -14.08900276	     22.24345374	     22.24345374	     19.13176789	    -12.16029337	      1.37570875	     31.97721511	     -3.68284673	      6.21902097	     22.92148597	     22.92148597	      8.46946988	     -8.76358809	      7.82060997	     -9.71195111	      1.71885787	      2.88032510	     49.46783471	    -17.73808684	     -5.90843349	     74.32440992	     44.79918656	      0.00000000	      0.00000000	    -15.42932609	     -7.69954948	     10.12278127	     27.43286814	     43.93839324	      0.00000000	      0.00000000
     29.38571429	     -4.22218792	     -3.26676061	     10.64676691	      0.92864312	      0.91984502	      0.50726538	      7.07458547	      3.81388619	    -14.47108526	     21.18251614	     21.18251614	     19.06762881	    -11.76734929	      1.52700447	     31.62756890	     -3.36459937	      6.03589032	     21.28217532	     21.28217532	      8.11646524	     -7.60631053	      8.00972139	     -9.02894917	      1.59571994	      3.19813106	     52.08608018	    -18.12401808	     -6.08410000	     75.71173088	     44.77481904	      0.00000000	      0.00000000	    -17.18781382	     -7.80729119	     10.35342688	     27.07068598	     43.87832838	      0.00000000	      0.00000000
